<svg id="visual" viewBox="0 0 900 600" width="900" height="600" xmlns="http://www.w3.org/2000/svg" xmlns:xlink="http://www.w3.org/1999/xlink" version="1.1"><rect x="0" y="0" width="900" height="600" fill="#FDF4E3"></rect><path d="M0 339L21.5 346.8C43 354.7 86 370.3 128.8 379C171.7 387.7 214.3 389.3 257.2 391C300 392.7 343 394.3 385.8 387.8C428.7 381.3 471.3 366.7 514.2 369.3C557 372 600 392 642.8 394.3C685.7 396.7 728.3 381.3 771.2 373.2C814 365 857 364 878.5 363.5L900 363L900 601L878.5 601C857 601 814 601 771.2 601C728.3 601 685.7 601 642.8 601C600 601 557 601 514.2 601C471.3 601 428.7 601 385.8 601C343 601 300 601 257.2 601C214.3 601 171.7 601 128.8 601C86 601 43 601 21.5 601L0 601Z" fill="#f7a15b"></path><path d="M0 461L21.5 462.5C43 464 86 467 128.8 462C171.7 457 214.3 444 257.2 434.5C300 425 343 419 385.8 413.7C428.7 408.3 471.3 403.7 514.2 407.2C557 410.7 600 422.3 642.8 430.8C685.7 439.3 728.3 444.7 771.2 444.2C814 443.7 857 437.3 878.5 434.2L900 431L900 601L878.5 601C857 601 814 601 771.2 601C728.3 601 685.7 601 642.8 601C600 601 557 601 514.2 601C471.3 601 428.7 601 385.8 601C343 601 300 601 257.2 601C214.3 601 171.7 601 128.8 601C86 601 43 601 21.5 601L0 601Z" fill="#fbb758"></path><path d="M0 515L21.5 515.7C43 516.3 86 517.7 128.8 518.7C171.7 519.7 214.3 520.3 257.2 512.7C300 505 343 489 385.8 487.3C428.7 485.7 471.3 498.3 514.2 504C557 509.7 600 508.3 642.8 504.2C685.7 500 728.3 493 771.2 487.8C814 482.7 857 479.3 878.5 477.7L900 476L900 601L878.5 601C857 601 814 601 771.2 601C728.3 601 685.7 601 642.8 601C600 601 557 601 514.2 601C471.3 601 428.7 601 385.8 601C343 601 300 601 257.2 601C214.3 601 171.7 601 128.8 601C86 601 43 601 21.5 601L0 601Z" fill="#facf5a"></path></svg>