<svg id="visual" viewBox="0 0 1350 500" width="1350" height="500" xmlns="http://www.w3.org/2000/svg" xmlns:xlink="http://www.w3.org/1999/xlink" version="1.1"><rect x="0" y="0" width="1350" height="500" fill="#FDF4E3"></rect><path d="M0 349L18.8 342.8C37.7 336.7 75.3 324.3 112.8 319C150.3 313.7 187.7 315.3 225.2 308.3C262.7 301.3 300.3 285.7 337.8 281.2C375.3 276.7 412.7 283.3 450.2 294.3C487.7 305.3 525.3 320.7 562.8 331.7C600.3 342.7 637.7 349.3 675.2 345.5C712.7 341.7 750.3 327.3 787.8 321C825.3 314.7 862.7 316.3 900.2 317.8C937.7 319.3 975.3 320.7 1012.8 313.5C1050.3 306.3 1087.7 290.7 1125.2 291C1162.7 291.3 1200.3 307.7 1237.8 308.7C1275.3 309.7 1312.7 295.3 1331.3 288.2L1350 281L1350 501L1331.3 501C1312.7 501 1275.3 501 1237.8 501C1200.3 501 1162.7 501 1125.2 501C1087.7 501 1050.3 501 1012.8 501C975.3 501 937.7 501 900.2 501C862.7 501 825.3 501 787.8 501C750.3 501 712.7 501 675.2 501C637.7 501 600.3 501 562.8 501C525.3 501 487.7 501 450.2 501C412.7 501 375.3 501 337.8 501C300.3 501 262.7 501 225.2 501C187.7 501 150.3 501 112.8 501C75.3 501 37.7 501 18.8 501L0 501Z" fill="#f7a15b"></path><path d="M0 402L18.8 392.8C37.7 383.7 75.3 365.3 112.8 354.2C150.3 343 187.7 339 225.2 336.5C262.7 334 300.3 333 337.8 344.8C375.3 356.7 412.7 381.3 450.2 385C487.7 388.7 525.3 371.3 562.8 370C600.3 368.7 637.7 383.3 675.2 378.7C712.7 374 750.3 350 787.8 349.5C825.3 349 862.7 372 900.2 374.8C937.7 377.7 975.3 360.3 1012.8 358C1050.3 355.7 1087.7 368.3 1125.2 372C1162.7 375.7 1200.3 370.3 1237.8 361.5C1275.3 352.7 1312.7 340.3 1331.3 334.2L1350 328L1350 501L1331.3 501C1312.7 501 1275.3 501 1237.8 501C1200.3 501 1162.7 501 1125.2 501C1087.7 501 1050.3 501 1012.8 501C975.3 501 937.7 501 900.2 501C862.7 501 825.3 501 787.8 501C750.3 501 712.7 501 675.2 501C637.7 501 600.3 501 562.8 501C525.3 501 487.7 501 450.2 501C412.7 501 375.3 501 337.8 501C300.3 501 262.7 501 225.2 501C187.7 501 150.3 501 112.8 501C75.3 501 37.7 501 18.8 501L0 501Z" fill="#fbb758"></path><path d="M0 426L18.8 419.7C37.7 413.3 75.3 400.7 112.8 399.7C150.3 398.7 187.7 409.3 225.2 417C262.7 424.7 300.3 429.3 337.8 431.2C375.3 433 412.7 432 450.2 433.2C487.7 434.3 525.3 437.7 562.8 433.3C600.3 429 637.7 417 675.2 410.2C712.7 403.3 750.3 401.7 787.8 407.8C825.3 414 862.7 428 900.2 431.3C937.7 434.7 975.3 427.3 1012.8 429.7C1050.3 432 1087.7 444 1125.2 450C1162.7 456 1200.3 456 1237.8 454.8C1275.3 453.7 1312.7 451.3 1331.3 450.2L1350 449L1350 501L1331.3 501C1312.7 501 1275.3 501 1237.8 501C1200.3 501 1162.7 501 1125.2 501C1087.7 501 1050.3 501 1012.8 501C975.3 501 937.7 501 900.2 501C862.7 501 825.3 501 787.8 501C750.3 501 712.7 501 675.2 501C637.7 501 600.3 501 562.8 501C525.3 501 487.7 501 450.2 501C412.7 501 375.3 501 337.8 501C300.3 501 262.7 501 225.2 501C187.7 501 150.3 501 112.8 501C75.3 501 37.7 501 18.8 501L0 501Z" fill="#facf5a"></path></svg>